<svg width="30" height="30" viewBox="0 0 30 30" fill="none" xmlns="http://www.w3.org/2000/svg">
<path d="M0 15C0 6.71573 6.71573 0 15 0C23.2843 0 30 6.71573 30 15C30 23.2843 23.2843 30 15 30C6.71573 30 0 23.2843 0 15Z" fill="#F5F5F5"/>
<path d="M8.67745 20C9.05232 20 9.35491 19.6842 9.35491 19.3035V18.6859H15.0049C15.3797 18.6859 15.6823 18.3747 15.6823 17.9893V16.5173L18.3244 17.2788C18.3831 17.2974 18.4463 17.3021 18.505 17.3021C18.7625 17.3021 18.9928 17.1488 19.1057 16.9074L20.4516 17.2928C20.5103 17.3113 20.5735 17.3206 20.6367 17.3206C20.7496 17.3206 20.8671 17.2881 20.9664 17.2324C21.1245 17.1395 21.2374 16.9909 21.2871 16.8145L21.9736 14.293C22.0775 13.9215 21.8652 13.5361 21.5084 13.4339L20.167 13.0485C20.1806 12.9046 20.1535 12.7652 20.0858 12.6399C19.9999 12.4773 19.8509 12.3566 19.6793 12.3102L11.7666 10.0255C11.4053 9.92335 11.0305 10.1369 10.9311 10.5084L9.93751 14.1351C9.89235 14.3162 9.91493 14.5066 10.0007 14.6645C10.0866 14.827 10.2356 14.9431 10.4072 14.9942L14.3274 16.1272V17.2928H9.35491V16.2387C9.35491 15.8579 9.05232 15.5421 8.67745 15.5421C8.30259 15.5421 8 15.8579 8 16.2387V19.3035C8 19.6842 8.30259 20 8.67745 20ZM11.4279 13.8426L12.0512 11.5532L18.6586 13.4618L18.0353 15.7465L11.4279 13.8426Z" fill="#808080"/>
</svg>
