<svg width="30" height="30" viewBox="0 0 30 30" fill="none" xmlns="http://www.w3.org/2000/svg">
<path d="M0 15C0 6.71573 6.71573 0 15 0C23.2843 0 30 6.71573 30 15C30 23.2843 23.2843 30 15 30C6.71573 30 0 23.2843 0 15Z" fill="#F5F5F5"/>
<path d="M9.24341 13.7041C9.53868 14.0413 10.0076 14.0744 10.3261 13.7702C13.0298 11.2314 16.9551 11.2314 19.6646 13.7636C19.9889 14.0678 20.4636 14.0413 20.7589 13.7041C21.1005 13.314 21.0773 12.6661 20.701 12.3157C17.3951 9.2281 12.6129 9.2281 9.30131 12.3157C8.92499 12.6595 8.89604 13.3074 9.24341 13.7041ZM13.7361 18.8347L14.5872 19.8066C14.813 20.0645 15.1777 20.0645 15.4035 19.8066L16.2546 18.8347C16.5267 18.524 16.4688 17.9884 16.1214 17.7835C15.4151 17.3669 14.5698 17.3669 13.8577 17.7835C13.5277 17.9884 13.464 18.524 13.7361 18.8347ZM11.5766 16.3686C11.8603 16.6926 12.3061 16.7256 12.6361 16.4545C14.0488 15.3107 15.9477 15.3107 17.3604 16.4545C17.6904 16.719 18.1362 16.6926 18.4199 16.3686L18.4257 16.362C18.7731 15.9653 18.7499 15.2909 18.3504 14.9669C16.3588 13.3207 13.6435 13.3207 11.6461 14.9669C11.2466 15.2975 11.2234 15.9653 11.5766 16.3686Z" fill="#808080"/>
</svg>
