<svg width="30" height="30" viewBox="0 0 30 30" fill="none" xmlns="http://www.w3.org/2000/svg">
<path d="M0 15C0 6.71573 6.71573 0 15 0C23.2843 0 30 6.71573 30 15C30 23.2843 23.2843 30 15 30C6.71573 30 0 23.2843 0 15Z" fill="#F5F5F5"/>
<path d="M19.9 10.0996H18.5C18.08 10.0996 17.8 10.3796 17.8 10.7996V12.8996H12.2V10.7996C12.2 10.3796 11.92 10.0996 11.5 10.0996H10.1C8.91 10.0996 8 11.0096 8 12.1996V17.7996C8 18.9896 8.91 19.8996 10.1 19.8996H11.5C11.92 19.8996 12.2 19.6196 12.2 19.1996V17.0996H17.8V19.1996C17.8 19.6196 18.08 19.8996 18.5 19.8996H19.9C21.09 19.8996 22 18.9896 22 17.7996V12.1996C22 11.0096 21.09 10.0996 19.9 10.0996ZM10.8 18.4996H10.1C9.68 18.4996 9.4 18.2196 9.4 17.7996V12.1996C9.4 11.7796 9.68 11.4996 10.1 11.4996H10.8V18.4996ZM12.2 15.6996V14.2996H17.8V15.6996H12.2ZM20.6 17.7996C20.6 18.2196 20.32 18.4996 19.9 18.4996H19.2V11.4996H19.9C20.32 11.4996 20.6 11.7796 20.6 12.1996V17.7996Z" fill="#808080"/>
</svg>
