<svg width="30" height="30" viewBox="0 0 30 30" fill="none" xmlns="http://www.w3.org/2000/svg">
<path d="M0 15C0 6.71573 6.71573 0 15 0C23.2843 0 30 6.71573 30 15C30 23.2843 23.2843 30 15 30C6.71573 30 0 23.2843 0 15Z" fill="#F5F5F5"/>
<path d="M15.7 11.5H13.6C13.4144 11.5 13.2363 11.5737 13.105 11.705C12.9738 11.8363 12.9 12.0143 12.9 12.2V17.8C12.9 17.9856 12.9738 18.1637 13.105 18.295C13.2363 18.4262 13.4144 18.5 13.6 18.5C13.7857 18.5 13.9637 18.4262 14.095 18.295C14.2263 18.1637 14.3 17.9856 14.3 17.8V16.4H15.7C16.257 16.4 16.7911 16.1787 17.1849 15.7849C17.5788 15.3911 17.8 14.857 17.8 14.3V13.6C17.8 13.043 17.5788 12.5089 17.1849 12.1151C16.7911 11.7212 16.257 11.5 15.7 11.5ZM16.4 14.3C16.4 14.4856 16.3263 14.6637 16.195 14.795C16.0637 14.9262 15.8857 15 15.7 15H14.3V12.9H15.7C15.8857 12.9 16.0637 12.9737 16.195 13.105C16.3263 13.2363 16.4 13.4143 16.4 13.6V14.3ZM15 8C13.6155 8 12.2622 8.41054 11.111 9.17971C9.95987 9.94888 9.06266 11.0421 8.53285 12.3212C8.00303 13.6003 7.86441 15.0078 8.13451 16.3656C8.4046 17.7235 9.07129 18.9708 10.0503 19.9497C11.0292 20.9287 12.2765 21.5954 13.6344 21.8655C14.9922 22.1356 16.3997 21.997 17.6788 21.4672C18.9579 20.9373 20.0511 20.0401 20.8203 18.889C21.5895 17.7378 22 16.3845 22 15C22 14.0807 21.8189 13.1705 21.4672 12.3212C21.1154 11.4719 20.5998 10.7003 19.9497 10.0503C19.2997 9.40024 18.5281 8.88463 17.6788 8.53284C16.8295 8.18106 15.9193 8 15 8ZM15 20.6C13.8924 20.6 12.8097 20.2716 11.8888 19.6562C10.9679 19.0409 10.2501 18.1663 9.82628 17.143C9.40243 16.1198 9.29153 14.9938 9.50761 13.9075C9.72368 12.8212 10.257 11.8234 11.0402 11.0402C11.8234 10.257 12.8212 9.72368 13.9075 9.5076C14.9938 9.29153 16.1198 9.40242 17.143 9.82627C18.1663 10.2501 19.0409 10.9679 19.6562 11.8888C20.2716 12.8097 20.6 13.8924 20.6 15C20.6 16.4852 20.01 17.9096 18.9598 18.9598C17.9096 20.01 16.4852 20.6 15 20.6Z" fill="#808080"/>
</svg>
