<svg width="30" height="30" viewBox="0 0 30 30" fill="none" xmlns="http://www.w3.org/2000/svg">
<path d="M0 15C0 6.71573 6.71573 0 15 0C23.2843 0 30 6.71573 30 15C30 23.2843 23.2843 30 15 30C6.71573 30 0 23.2843 0 15Z" fill="#F5F5F5"/>
<path d="M20.8378 20.223C20.5344 20.2309 20.2356 20.1486 19.9806 19.9868C19.532 19.7237 19.0193 19.5848 18.4969 19.5848C17.9744 19.5848 17.4617 19.7237 17.0131 19.9868C16.7581 20.1486 16.4593 20.2309 16.1559 20.223C15.8544 20.2321 15.5574 20.1496 15.3053 19.9868C14.8596 19.7143 14.343 19.5746 13.8182 19.5847C13.2956 19.5755 12.7814 19.7151 12.3377 19.9868C12.0851 20.1485 11.7884 20.2308 11.487 20.223C11.1836 20.2309 10.8849 20.1486 10.6299 19.9868C10.1867 19.7141 9.67215 19.5744 9.14936 19.5847C8.97714 19.5847 8.81197 19.652 8.69019 19.7717C8.56841 19.8914 8.5 20.0537 8.5 20.223C8.5 20.3922 8.56841 20.5546 8.69019 20.6743C8.81197 20.794 8.97714 20.8612 9.14936 20.8612C9.45086 20.8521 9.74789 20.9346 10 21.0974C10.4457 21.3699 10.9622 21.5096 11.487 21.4995C12.0098 21.5098 12.5244 21.3701 12.9676 21.0974C13.2202 20.9357 13.5169 20.8534 13.8182 20.8612C14.1216 20.8533 14.4204 20.9356 14.6754 21.0974C15.1186 21.3701 15.6331 21.5098 16.1559 21.4995C16.6807 21.5096 17.1973 21.3699 17.6429 21.0974C17.8976 20.9348 18.1966 20.8525 18.5001 20.8612C18.8016 20.8521 19.0986 20.9346 19.3508 21.0974C19.7969 21.3689 20.3131 21.5085 20.8378 21.4995C21.01 21.4995 21.1752 21.4322 21.2969 21.3125C21.4187 21.1928 21.4871 21.0305 21.4871 20.8612C21.4871 20.6919 21.4187 20.5296 21.2969 20.4099C21.1752 20.2902 21.01 20.223 20.8378 20.223ZM9.14936 18.3082C9.45086 18.2991 9.74789 18.3816 10 18.5444C10.4457 18.8169 10.9622 18.9566 11.487 18.9465C12.0098 18.9568 12.5244 18.8171 12.9676 18.5444C13.2202 18.3827 13.5169 18.3004 13.8182 18.3082C14.1216 18.3003 14.4204 18.3826 14.6754 18.5444C15.1186 18.8171 15.6331 18.9568 16.1559 18.9465C16.6807 18.9566 17.1973 18.8169 17.6429 18.5444C17.8976 18.3819 18.1966 18.2995 18.5001 18.3082C18.8016 18.2991 19.0986 18.3816 19.3508 18.5444C19.7969 18.8159 20.3131 18.9555 20.8378 18.9465C21.01 18.9465 21.1752 18.8792 21.2969 18.7595C21.4187 18.6398 21.4871 18.4775 21.4871 18.3082C21.4871 18.139 21.4187 17.9766 21.2969 17.8569C21.1752 17.7372 21.01 17.67 20.8378 17.67C20.5344 17.6779 20.2356 17.5956 19.9806 17.4338C19.5374 17.1611 19.0229 17.0214 18.5001 17.0317C18.4027 17.0317 18.3248 17.0317 18.2404 17.0317V10.9684C18.2145 10.7145 18.2924 10.4609 18.4568 10.2634C18.6212 10.0659 18.8587 9.94068 19.117 9.91529C19.3753 9.8899 19.6333 9.96641 19.8343 10.128C20.0352 10.2896 20.1626 10.523 20.1884 10.7769C20.2055 10.8607 20.2392 10.9404 20.2876 11.0115C20.3359 11.0825 20.3981 11.1434 20.4705 11.1908C20.5428 11.2383 20.624 11.2712 20.7093 11.2878C20.7946 11.3044 20.8824 11.3043 20.9677 11.2875C21.0529 11.2708 21.134 11.2377 21.2063 11.1901C21.2785 11.1425 21.3405 11.0814 21.3888 11.0103C21.437 10.9392 21.4705 10.8594 21.4874 10.7756C21.5043 10.6917 21.5042 10.6054 21.4871 10.5216C21.4269 9.92917 21.1296 9.38451 20.6608 9.00747C20.1919 8.63044 19.5899 8.4519 18.9871 8.51115C18.3843 8.57039 17.8302 8.86257 17.4466 9.32339C17.063 9.78421 16.8814 10.3759 16.9416 10.9684V12.564H11.7468V10.9684C11.721 10.7145 11.7988 10.4609 11.9632 10.2634C12.1276 10.0659 12.3651 9.94068 12.6234 9.91529C12.8817 9.8899 13.1398 9.96641 13.3407 10.128C13.5416 10.2896 13.669 10.523 13.6949 10.7769C13.7293 10.9462 13.8307 11.0951 13.9769 11.1908C14.0492 11.2383 14.1304 11.2712 14.2157 11.2878C14.301 11.3044 14.3888 11.3043 14.4741 11.2875C14.5594 11.2708 14.6404 11.2377 14.7127 11.1901C14.785 11.1425 14.847 11.0814 14.8952 11.0103C14.9434 10.9392 14.977 10.8594 14.9938 10.7756C15.0107 10.6917 15.0106 10.6054 14.9936 10.5216C14.9333 9.92917 14.636 9.38451 14.1672 9.00747C13.6983 8.63044 13.0963 8.4519 12.4935 8.51115C11.8908 8.57039 11.3366 8.86257 10.953 9.32339C10.5694 9.78421 10.3878 10.3759 10.4481 10.9684V17.3509C10.0497 17.138 9.60278 17.0282 9.14936 17.0317C8.97714 17.0317 8.81197 17.099 8.69019 17.2187C8.56841 17.3384 8.5 17.5007 8.5 17.67C8.5 17.8393 8.56841 18.0016 8.69019 18.1213C8.81197 18.241 8.97714 18.3082 9.14936 18.3082ZM15.3053 17.4338C14.8596 17.1613 14.343 17.0216 13.8182 17.0317C13.2956 17.0225 12.7814 17.1622 12.3377 17.4338C12.1596 17.5521 11.9583 17.6325 11.7468 17.67V16.3935H16.9416V17.4657C16.7057 17.6079 16.4325 17.6789 16.1559 17.67C15.8544 17.6791 15.5574 17.5966 15.3053 17.4338ZM16.9416 13.8405V15.117H11.7468V13.8405H16.9416Z" fill="#808080"/>
</svg>
