<svg width="29" height="30" viewBox="0 0 29 30" fill="none" xmlns="http://www.w3.org/2000/svg">
<path d="M0 14.5C0 6.49187 6.49187 0 14.5 0C22.5081 0 29 6.49187 29 14.5V15.5C29 23.5081 22.5081 30 14.5 30C6.49187 30 0 23.5081 0 15.5V14.5Z" fill="#F5F5F5"/>
<path d="M19.7 10H9.3C8.58435 10 8 10.5201 8 11.1558V17.5129C8 18.1486 8.5733 18.7716 9.27465 18.8959L12.1164 18.9062C12.1164 18.9062 9.6705 20 11.25 20H17.75C19.3295 20 16.8829 18.9062 16.8829 18.9062L19.7253 18.8959C20.426 18.7716 21 18.1486 21 17.5129V11.1558C21 10.5201 20.415 10 19.7 10ZM19.7 17.5129H9.3V11.1558H19.7V17.5129Z" fill="#808080"/>
</svg>
