<svg width="370" height="211" viewBox="0 0 370 211" fill="none" xmlns="http://www.w3.org/2000/svg">
<path fill-rule="evenodd" clip-rule="evenodd" d="M122.61 8.63507C123.759 9.47171 127.542 14.5354 128.175 15.8202C131.229 20.2599 135.091 27.5993 136.87 32.6284C139.98 41.7182 142.605 48.6721 145.176 58.0449C145.417 59.0418 145.492 58.7632 145.697 59.4546C147.348 66.1783 149.46 73.3781 151.347 80.0627C151.545 80.7648 151.859 81.4316 152.088 82.2826L154.433 91.5206C154.808 93.1133 155.024 93.1084 155.144 93.6386C156.281 98.6334 157.24 102.601 158.551 107.627C158.74 108.464 158.933 109.218 159.053 110.067C160.702 121.747 165.188 136.453 167.328 148.151C167.393 149.189 167.707 149.49 167.854 150.461C169.349 160.373 171.521 170.746 172.359 180.708C172.509 182.498 172.419 184.511 172.613 186.24C172.666 186.717 172.844 187.009 172.913 187.454L173.261 191.387C173.504 195.066 173.843 198.581 170.158 199.62C169.066 199.928 168.658 199.647 167.817 199.261C166.5 198.656 167.471 199.184 166.179 198.065C161.351 192.061 160.099 181.964 153.905 173.902C153.805 173.788 152.315 171.932 152.25 171.829C151.499 170.655 144.894 165.435 142.964 164.233C142.705 164.072 142.702 164.024 142.464 163.832C131.109 154.641 111.143 152.931 97.0158 150.906C90.0716 150.629 79.5237 151.476 73.7712 150.69C72.4418 150.508 70.5325 150.751 69.1496 150.542C67.5502 150.3 61.0399 150.442 59.997 150.285C58.753 150.096 56.7359 150.147 55.4306 150.082C54.0734 150.014 52.423 149.687 51.0515 149.692C48.1626 149.703 37.5124 148.861 35.6772 148.439C29.7844 147.085 23.9399 147.547 17.715 145.137C16.1153 144.518 16.2298 144.809 14.9489 144.295C10.8216 142.425 6.32389 139.679 2.37123 137.934L0.379423 136.448C0.148084 136.269 0.0399657 136.087 0 135.894V135.447C0.0341033 135.204 0.104 134.938 0.128971 134.637L0.64447 134.648C3.47736 134.701 5.05558 134.451 7.95126 134.938C10.2087 135.318 12.5041 135.758 14.8206 135.943C17.225 136.136 19.3821 136.562 21.9138 136.697C29.0239 137.078 38.0441 137.16 45.0679 136.996C55.6364 136.749 76.4213 133.495 85.158 129.956C86.1277 129.563 86.9356 129.248 87.9405 128.874C88.4491 128.685 88.7562 128.421 89.229 128.232C90.0791 127.894 91.2083 127.92 92.173 127.178L94.7226 125.862C95.6538 125.532 95.3501 125.479 96.0174 125.094C97.6664 124.143 97.7754 124.345 99.7629 123.042C100.235 122.732 100.615 122.583 101.106 122.326L105.672 119.111C106.336 118.926 107.026 118.093 107.445 117.585C112.216 111.789 106.731 109.063 100.965 110.987C96.1352 112.599 87.949 110.211 83.7918 107.227C82.3829 106.216 82.9577 106.949 82.0334 105.894C81.8941 105.735 81.971 105.809 81.8386 105.702C80.8886 104.934 81.2181 105.042 80.8489 104.76C76.4711 101.42 75.5203 97.5446 73.367 93.3094C73.0108 92.609 72.6622 88.4476 72.6621 87.9249C72.6609 85.1148 72.9314 81.6447 74.6106 79.2732C75.9127 77.8799 78.1479 75.1276 79.5427 74.2897C80.366 73.7951 83.0097 72.7321 83.9999 72.4336L86.6761 72.0166C88.0762 71.7822 91.5661 72.0274 92.7252 72.1853C95.0606 72.5033 97.2843 73.3149 99.3731 74.3039C99.9822 74.5922 100.45 74.8723 100.943 75.1781C101.884 75.7621 104.52 77.3746 105.328 78.1355C105.524 78.3205 105.674 78.5609 105.874 78.746C106.663 79.476 106.764 79.394 107.82 80.5353C110.079 82.9754 111.106 84.9624 112.642 87.9542C113.403 89.4377 114.41 94.158 114.419 95.902C114.43 98.0637 114.621 98.2665 115.57 99.695C121.762 109.016 128.21 82.3048 128.136 68.1078C128.106 62.1512 128.217 52.3224 127.119 46.987C126.71 44.9973 126.802 43.366 126.326 41.4726C124.589 29.9092 120.189 15.1286 110.061 8.80929C108.433 7.79405 106.835 6.63827 104.791 6.21928C103.317 5.91685 104.157 5.80951 102.225 5.66882C101.001 5.5401 100.844 5.80242 99.7178 5.23323C98.7218 4.72974 98.7105 4.5446 98.8145 3.24785C98.8142 2.93236 98.7901 3.13438 98.8972 2.88252C99.3593 1.79538 102.275 1.09944 103.494 0.654175C111.287 -2.19901 117.603 4.98649 122.61 8.63507V8.63507Z" fill="#FC444B"/>
<path fill-rule="evenodd" clip-rule="evenodd" d="M268.131 5.72302C268.871 7.07985 267.862 11.8342 267.5 13.4314C267.362 14.0434 267.191 14.3268 267.022 15.0127C266.253 18.1287 266.607 16.3351 265.864 18.2316C265.607 18.8853 265.536 19.1801 265.209 19.7658C264.954 20.2228 264.663 20.6046 264.392 21.0088C263.948 21.67 263.729 22.4844 263.289 23.1259C262.621 24.102 262.993 24.4887 261.374 26.6187L260.529 27.9628C260.244 28.4079 259.946 28.8056 259.647 29.2703C259.203 29.9635 259.306 29.9545 258.688 30.5005C258.243 30.8936 258.21 31.2426 257.896 31.7691C257.579 32.3025 257.29 32.5174 256.934 32.9959C256.602 33.4409 256.328 33.8273 256.016 34.267C255.681 34.7385 255.364 34.912 255.006 35.4466C254.673 35.9444 253.641 37.5641 253.235 37.9251L249.284 42.6039C248.847 43.3238 248.532 43.3665 248.284 43.7926L247.343 45.0414C246.992 45.4394 246.889 45.8434 246.507 46.2655C246.316 46.476 246.184 46.564 245.997 46.7862C245.33 47.5778 244.858 47.8463 244.313 48.4509C243.501 49.3523 242.825 49.8926 242.017 50.9198C241.571 51.4869 241.351 51.9003 240.844 52.3227C239.71 53.2683 238.712 54.654 237.522 55.5702C236.942 56.0169 236.885 56.4153 236.272 56.8959C235.545 57.4663 235.031 58.1987 234.282 58.7702C233.727 59.1948 233.458 59.6968 232.886 60.0789L230.845 61.9017C230.454 62.2777 230.542 62.1794 230.109 62.4538C229.574 62.7933 229.348 63.2044 228.678 63.5995C227.569 64.2545 226.735 65.1804 225.667 65.8695C220.573 69.1564 216.029 72.3061 210.444 74.9947L205.889 77.0105C205.035 77.3461 204.25 77.8071 203.667 78.0095C202.259 78.4982 201.025 78.9082 199.534 79.1598C192.276 80.3846 188.847 77.987 194.595 71.9123C195.633 70.8141 196.616 69.9999 197.601 68.7364C197.976 68.4047 198.473 66.8752 199.498 65.4833C199.976 64.8353 200.572 63.1721 200.815 62.2941C202.306 56.9289 202.945 56.6784 202.507 50.7468C202.361 48.7593 201.768 47.0075 201.485 45.0759C201.382 44.3748 201.05 44.0641 200.865 43.3784C200.492 41.9962 200.317 41.3842 199.575 40.1616C197.128 36.8431 194.13 33.2037 190.272 31.4325C189.733 31.1851 187.377 30.7314 186.572 30.6224C180.879 29.8507 177.975 32.1902 174.125 36.0348C169.078 41.0726 167.737 47.3528 167.708 54.3438C167.704 55.2448 167.851 55.5926 167.841 56.5276C167.807 59.6449 169.688 64.0729 171.196 66.6911C173.389 70.4992 179.537 73.6906 179.228 76.7387C178.653 82.4113 168.629 78.6844 165.703 77.4505C163.496 76.5434 157.027 73.9732 155.953 73.1565C155.752 73.0034 155.272 72.1908 154.176 72.0997C153.943 73.0963 154.472 74.6 154.907 75.6167L155.465 77.9833C155.484 78.0104 155.511 78.0199 155.518 78.0671C156.915 82.5681 157.912 87.9576 159.471 92.2889C161.622 98.269 165.402 116.647 166.94 124.213C169.925 137.271 175.481 158.023 176.918 169.341C177.013 170.091 177.308 170.679 177.441 171.513C178.8 180.072 179.165 192.721 179.139 201.303C179.128 204.826 179.61 208.706 183.764 209.86C191.057 211.887 191.334 202.376 191.28 198.086C191.143 187.19 192.788 179.554 193.55 169.488C193.795 166.264 194.534 162.123 195.336 158.872L198.15 147.784C198.371 147.334 198.544 147.358 198.613 146.727C199.508 138.566 209.46 120.409 214.074 112.72C215.016 111.25 214.668 111.899 215.398 110.953C215.861 110.353 215.709 110.157 216.607 109.073C217.998 107.397 218.958 105.106 220.428 103.622C220.978 103.066 221.865 101.387 223.009 100.02C223.256 99.7256 223.332 99.387 223.615 99.0819C224.746 97.8623 224.538 97.904 225.555 96.3859C226.012 95.7039 226.361 95.164 226.797 94.537C227.691 93.2499 227.568 93.7069 228.163 92.8106C229.786 90.367 229.239 91.2857 230.931 89.3999C231.863 88.3612 232.646 86.9044 233.579 85.8648C234.076 85.3111 234.47 84.8863 234.84 84.0328C235.102 83.4297 236.865 81.6267 237.619 80.6326L240.226 77.0559C240.738 76.3482 241.106 76.0057 241.595 75.3354L245.415 69.8831C248.129 65.6015 251.466 61.1474 253.935 56.6266C254.459 55.8006 256.246 52.3492 257.045 52.194L258.764 49.3651C258.984 48.9313 259.083 48.7716 259.338 48.393C260.163 47.166 259.726 48.2684 260.45 46.5432C260.76 45.8031 261.122 45.7018 261.611 44.6143C261.827 44.1344 261.906 44.2099 262.161 43.7481L265.773 36.7105C266.216 35.0551 266.188 35.2017 266.907 33.943C267.126 33.559 267.089 33.3955 267.252 32.9967C267.635 32.0524 272.191 22.3082 272.132 21.5302C273.149 18.9207 273.781 17.5437 273.933 14.7054C274.023 13.0179 273.987 12.0314 273.936 10.3251C273.856 7.61574 273.652 6.38869 272.223 4.05723C271.893 3.5197 272.137 3.78478 271.61 3.50879L271.211 4.70698C270.534 4.92137 270.558 5.45822 270.052 5.56938C269.523 5.68555 268.742 5.63008 268.131 5.72302H268.131Z" fill="#FC444B"/>
<path fill-rule="evenodd" clip-rule="evenodd" d="M258.904 85.017L257.696 87.2861C257.047 88.5405 256.473 91.1329 256.164 92.6928C255.569 95.7056 256.733 98.2968 253.691 100.661C252.986 101.209 252.053 101.321 251.165 100.876C249.345 99.9639 249.919 100.475 249.058 99.4975C248.375 98.7239 248.4 98.9777 247.569 97.5119C245.926 94.6154 245.228 90.3006 244.104 87.1951C243.718 86.1285 243.383 82.3918 243.036 81.4453C242.031 81.3024 241.94 82.0434 241.564 82.7595L237.815 87.642C237.456 88.0512 237.425 87.9294 237.075 88.4508C235.635 90.6513 224.067 106.116 223.739 108.165C223.597 109.047 218.817 116.386 218.097 117.759C216.712 120.4 213.475 125.303 212.635 127.496C212.434 128.019 212.465 128.226 212.184 128.719L211.001 130.876C209.456 132.765 206.484 142.659 205.237 145.333L204.266 147.708C203.615 149.42 203.411 151.188 202.781 152.918L200.11 163.76C199.894 164.674 199.825 165.914 199.559 166.689C199.19 167.762 199.322 168.497 199.145 169.621C198.832 171.6 198.582 173.493 198.346 175.549C197.682 181.335 194.295 199.975 200.843 199.891C201.93 199.877 202.331 199.471 203.034 199.113C205.198 198.009 206.708 193.82 207.431 191.662C207.956 190.093 208.33 188.58 209.088 187.268C215.543 170.888 230.455 157.579 248.453 154.64C265.619 149.863 280.749 150.693 298.558 150.599C299.303 150.59 299.53 150.459 300.355 150.463C315.655 150.055 329.024 149.377 344.165 146.969C344.579 146.926 345.484 146.911 345.962 146.833C346.397 146.762 347.001 146.45 347.442 146.38L350.762 145.705C353.553 145.023 369.84 138.804 369.84 135.152C368.692 134.385 366.844 134.631 364.937 134.632C363.592 134.634 359.599 135.462 357.78 135.724C346.467 137.353 334.687 136.896 323.302 136.954C312.354 136.37 281.097 131.923 270.225 122.894C269.883 122.61 269.758 122.575 269.332 122.37C268.056 121.755 268.885 121.807 267.64 121.229L264.37 118.959C263.882 118.572 262.144 116.543 261.852 115.939C260.902 113.967 261.416 111.403 263.826 110.65C267.194 109.598 268.731 112.235 276.218 111.31C278.186 111.067 277.985 110.948 279.343 110.441C282.712 109.185 283.729 109.067 286.824 106.842L289.174 105.07C291.191 103.047 294.106 99.6915 295.502 97.103C296.882 94.5428 297.081 92.5928 297.58 89.9119L297.597 85.5315C296.363 76.8341 290.294 72.0942 281.279 72.053C278.416 72.0399 277.469 72.4622 275.352 72.8628C270.34 73.8112 261.836 80.0623 258.904 85.017V85.017Z" fill="#FC444B"/>
<path fill-rule="evenodd" clip-rule="evenodd" d="M228.562 46.7472C228.003 47.9239 226.48 53.1208 226.077 54.5531C225.601 56.2451 224.802 58.1786 224.686 59.9716C225.911 59.8892 229.57 56.5998 230.458 55.7176C230.886 55.2934 231.189 55.1214 231.617 54.6867C235.177 51.0735 239.675 47.489 242.771 43.6872C242.967 43.4721 243.535 42.6825 243.768 42.3655C243.768 38.4722 246.164 30.5015 247.294 26.5821C250.234 17.7601 256.538 8.60878 265.886 6.15023C266.438 6.00515 267.071 5.63138 268.131 5.71582C268.742 5.62289 269.523 5.67836 270.052 5.56219C270.558 5.45103 270.787 5.12148 271.464 4.90709L271.61 3.5016C271.482 3.00744 270.967 2.58474 270.579 2.34543L269.208 1.52578C267.548 0.5768 263.149 0.46547 261.313 0.812568C241.496 4.55825 235.938 31.221 228.562 46.7472V46.7472Z" fill="#FC444B"/>
<path fill-rule="evenodd" clip-rule="evenodd" d="M122.431 46.7958C122.068 43.9243 122.518 44.8756 120.892 43.0407C115.351 36.7885 106.991 24.8204 104.624 17.7098C102.986 12.7891 102.225 10.7807 102.225 5.66755C101.001 5.53884 100.844 5.80116 99.7177 5.23196C98.7218 4.72848 98.7104 4.54333 98.8144 3.24658C97.5161 3.88801 98.0949 4.60465 97.1578 5.90962C96.9021 6.26594 96.7975 6.59819 96.7148 7.01173C96.6122 7.52472 96.628 7.72865 96.5356 8.24817C96.2749 9.71279 96.0368 8.81523 96.0371 12.2548C96.0377 18.3429 99.5078 29.7277 102.702 33.6555C103.606 35.4666 105.102 39.0043 106.111 40.5471C106.317 40.8617 106.541 41.0515 106.732 41.3432C110.741 47.4751 115.106 55.16 118.987 61.6675C119.332 62.3396 120.222 63.871 120.75 64.4115C121.737 65.4228 122.554 67.5126 123.495 67.5908C123.624 58.9391 123.472 55.0096 122.431 46.7958Z" fill="#FC444B"/>
<path fill-rule="evenodd" clip-rule="evenodd" d="M185.505 67.9823C183.264 67.9655 176.521 67.054 175.363 63.3524C175.128 62.601 175.125 61.2611 175.836 60.5599C176.646 59.7598 177.036 60.6574 177.573 61.339C178.942 63.0794 182.223 64.4076 184.16 64.4123C187.524 64.4205 189.981 63.6993 192.773 61.3388C192.774 61.3377 194.548 59.5706 194.975 61.002C195.541 62.5963 194.856 63.8669 194.217 64.4622C191.377 66.7602 189.004 68.0087 185.505 67.9823V67.9823Z" fill="#FC444B"/>
<path fill-rule="evenodd" clip-rule="evenodd" d="M106.381 100.572C105.348 102.556 101.471 108.138 97.6406 107.486C96.8629 107.354 95.6659 106.747 95.3625 105.797C95.0164 104.713 95.995 104.774 96.8472 104.607C99.0227 104.18 101.699 101.866 102.583 100.146C104.118 97.159 104.591 94.6468 103.752 91.0926C103.751 91.0909 102.98 88.7111 104.452 88.9814C106.132 89.2023 106.955 90.3889 107.196 91.2272C107.957 94.7966 107.994 97.4734 106.381 100.572V100.572Z" fill="#FC444B"/>
<path fill-rule="evenodd" clip-rule="evenodd" d="M265.976 101.122C264.749 99.2508 261.774 93.1425 264.221 90.1301C264.718 89.5183 265.834 88.7745 266.812 88.9761C267.929 89.2062 267.396 90.028 267.125 90.8511C266.431 92.9528 267.14 96.4148 268.209 98.0265C270.065 100.827 272.028 102.469 275.544 103.481C275.545 103.482 278.002 103.977 277.044 105.125C276.028 106.478 274.588 106.612 273.738 106.411C270.247 105.324 267.891 104.044 265.976 101.122Z" fill="#FC444B"/>
<path fill-rule="evenodd" clip-rule="evenodd" d="M185.505 67.9823C183.264 67.9655 176.521 67.054 175.363 63.3524C175.128 62.601 175.125 61.2611 175.836 60.5599C176.646 59.7598 177.036 60.6574 177.573 61.339C178.942 63.0794 182.223 64.4076 184.16 64.4123C187.524 64.4205 189.981 63.6993 192.773 61.3388C192.774 61.3377 194.548 59.5706 194.975 61.002C195.541 62.5963 194.856 63.8669 194.217 64.4622C191.377 66.7602 189.004 68.0087 185.505 67.9823V67.9823Z" fill="#FC444B"/>
</svg>
